<?xml version="1.0" encoding="utf-8"?>
<!-- Generator: Adobe Illustrator 22.1.0, SVG Export Plug-In . SVG Version: 6.00 Build 0)  -->
<svg version="1.1" id="Layer_1" xmlns="http://www.w3.org/2000/svg" xmlns:xlink="http://www.w3.org/1999/xlink" x="0px" y="0px"
	 viewBox="0 0 307.6 307.6" style="enable-background:new 0 0 307.6 307.6;" xml:space="preserve">
<style type="text/css">
	.st0{opacity:0.3;}
	.st1{fill:#6C757D;}
</style>
<g class="st0">
	<g>
		<rect x="134.5" y="0.8" transform="matrix(0.6218 -0.7832 0.7832 0.6218 49.397 107.966)" class="st1" width="4" height="4.1"/>
		<rect x="148.5" y="11.8" transform="matrix(0.6218 -0.7832 0.7832 0.6218 46.053 123.1453)" class="st1" width="4" height="4.1"/>
		<rect x="162.5" y="23" transform="matrix(0.6218 -0.7832 0.7832 0.6218 42.6242 138.3055)" class="st1" width="4" height="4.1"/>
		
			<rect x="176.7" y="34.3" transform="matrix(0.6218 -0.7832 0.7832 0.6218 39.1404 153.6623)" class="st1" width="4" height="4.1"/>
		
			<rect x="191.6" y="46.1" transform="matrix(0.6218 -0.7832 0.7832 0.6218 35.5054 169.8511)" class="st1" width="4" height="4.1"/>
		
			<rect x="205.6" y="57.2" transform="matrix(0.6218 -0.7832 0.7832 0.6218 32.1273 185.0075)" class="st1" width="4" height="4.1"/>
		
			<rect x="219.9" y="68.5" transform="matrix(0.6218 -0.7832 0.7832 0.6218 28.6587 200.4721)" class="st1" width="4" height="4.1"/>
		
			<rect x="233.9" y="79.6" transform="matrix(0.6218 -0.7832 0.7832 0.6218 25.2299 215.6324)" class="st1" width="4" height="4.1"/>
		<rect x="248" y="90.8" transform="matrix(0.6218 -0.7832 0.7832 0.6218 21.816 230.9004)" class="st1" width="4" height="4.1"/>
		<rect x="262.1" y="102" transform="matrix(0.6218 -0.7832 0.7832 0.6218 18.4022 246.1685)" class="st1" width="4" height="4.1"/>
		
			<rect x="276.2" y="113.3" transform="matrix(0.6218 -0.7832 0.7832 0.6218 14.9185 261.5253)" class="st1" width="4" height="4.1"/>
		
			<rect x="290.3" y="124.5" transform="matrix(0.6218 -0.7832 0.7832 0.6218 11.4706 276.7704)" class="st1" width="4" height="4.1"/>
		
			<rect x="302.8" y="134.3" transform="matrix(0.6218 -0.7832 0.7832 0.6218 8.4634 290.3085)" class="st1" width="4" height="4.1"/>
	</g>
	<g>
		
			<rect x="124.6" y="13.2" transform="matrix(0.6218 -0.7832 0.7832 0.6218 35.9666 104.9437)" class="st1" width="4" height="4.1"/>
		<rect x="138.6" y="24.3" transform="matrix(0.6218 -0.7832 0.7832 0.6218 32.5378 120.104)" class="st1" width="4" height="4.1"/>
		<rect x="152.6" y="35.4" transform="matrix(0.6218 -0.7832 0.7832 0.6218 29.109 135.2642)" class="st1" width="4" height="4.1"/>
		
			<rect x="166.8" y="46.7" transform="matrix(0.6218 -0.7832 0.7832 0.6218 25.7101 150.6401)" class="st1" width="4" height="4.1"/>
		<rect x="181.8" y="58.6" transform="matrix(0.6218 -0.7832 0.7832 0.6218 22.056 166.9138)" class="st1" width="4" height="4.1"/>
		
			<rect x="195.7" y="69.7" transform="matrix(0.6218 -0.7832 0.7832 0.6218 18.6122 181.9663)" class="st1" width="4" height="4.1"/>
		<rect x="210" y="81" transform="matrix(0.6218 -0.7832 0.7832 0.6218 15.1435 197.4309)" class="st1" width="4" height="4.1"/>
		<rect x="224" y="92.1" transform="matrix(0.6218 -0.7832 0.7832 0.6218 11.7146 212.5911)" class="st1" width="4" height="4.1"/>
		
			<rect x="238.1" y="103.3" transform="matrix(0.6218 -0.7832 0.7832 0.6218 8.3008 227.8592)" class="st1" width="4" height="4.1"/>
		<rect x="252.2" y="114.5" transform="matrix(0.6218 -0.7832 0.7832 0.6218 4.887 243.1273)" class="st1" width="4" height="4.1"/>
		<rect x="266.3" y="125.7" transform="matrix(0.6218 -0.7832 0.7832 0.6218 1.4033 258.484)" class="st1" width="4" height="4.1"/>
		
			<rect x="280.4" y="136.9" transform="matrix(0.6218 -0.7832 0.7832 0.6218 -1.9597 273.7482)" class="st1" width="4" height="4.1"/>
		
			<rect x="292.9" y="146.8" transform="matrix(0.6218 -0.7832 0.7832 0.6218 -5.0518 287.2673)" class="st1" width="4" height="4.1"/>
	</g>
	<g>
		
			<rect x="112.9" y="27.8" transform="matrix(0.6218 -0.7832 0.7832 0.6218 20.1051 101.3145)" class="st1" width="4" height="4.1"/>
		<rect x="127" y="39" transform="matrix(0.6218 -0.7832 0.7832 0.6218 16.6572 116.5596)" class="st1" width="4" height="4.1"/>
		<rect x="141" y="50.1" transform="matrix(0.6218 -0.7832 0.7832 0.6218 13.2283 131.7198)" class="st1" width="4" height="4.1"/>
		<rect x="155.2" y="61.3" transform="matrix(0.6218 -0.7832 0.7832 0.6218 9.8295 147.0957)" class="st1" width="4" height="4.1"/>
		<rect x="170.1" y="73.2" transform="matrix(0.6218 -0.7832 0.7832 0.6218 6.1944 163.2846)" class="st1" width="4" height="4.1"/>
		<rect x="184.1" y="84.3" transform="matrix(0.6218 -0.7832 0.7832 0.6218 2.7316 178.4219)" class="st1" width="4" height="4.1"/>
		
			<rect x="198.3" y="95.6" transform="matrix(0.6218 -0.7832 0.7832 0.6218 -0.7181 193.8016)" class="st1" width="4" height="4.1"/>
		
			<rect x="212.3" y="106.8" transform="matrix(0.6218 -0.7832 0.7832 0.6218 -4.166 209.0468)" class="st1" width="4" height="4.1"/>
		<rect x="226.4" y="118" transform="matrix(0.6218 -0.7832 0.7832 0.6218 -7.5797 224.3148)" class="st1" width="4" height="4.1"/>
		
			<rect x="240.5" y="129.1" transform="matrix(0.6218 -0.7832 0.7832 0.6218 -10.9936 239.5829)" class="st1" width="4" height="4.1"/>
		
			<rect x="254.7" y="140.4" transform="matrix(0.6218 -0.7832 0.7832 0.6218 -14.4773 254.9397)" class="st1" width="4" height="4.1"/>
		
			<rect x="268.8" y="151.5" transform="matrix(0.6218 -0.7832 0.7832 0.6218 -17.8213 270.119)" class="st1" width="4" height="4.1"/>
		
			<rect x="281.3" y="161.5" transform="matrix(0.6218 -0.7832 0.7832 0.6218 -20.9324 283.7229)" class="st1" width="4" height="4.1"/>
	</g>
	<g>
		<rect x="101.7" y="42" transform="matrix(0.6218 -0.7832 0.7832 0.6218 4.7292 97.9156)" class="st1" width="4" height="4.1"/>
		<rect x="115.7" y="53.1" transform="matrix(0.6218 -0.7832 0.7832 0.6218 1.3004 113.0758)" class="st1" width="4" height="4.1"/>
		
			<rect x="129.7" y="64.3" transform="matrix(0.6218 -0.7832 0.7832 0.6218 -2.1285 128.2362)" class="st1" width="4" height="4.1"/>
		<rect x="143.9" y="75.5" transform="matrix(0.6218 -0.7832 0.7832 0.6218 -5.5273 143.612)" class="st1" width="4" height="4.1"/>
		
			<rect x="158.9" y="87.4" transform="matrix(0.6218 -0.7832 0.7832 0.6218 -9.1814 159.8857)" class="st1" width="4" height="4.1"/>
		
			<rect x="172.8" y="98.5" transform="matrix(0.6218 -0.7832 0.7832 0.6218 -12.6252 174.9382)" class="st1" width="4" height="4.1"/>
		
			<rect x="187.1" y="109.8" transform="matrix(0.6218 -0.7832 0.7832 0.6218 -16.094 190.4028)" class="st1" width="4" height="4.1"/>
		
			<rect x="201.1" y="120.9" transform="matrix(0.6218 -0.7832 0.7832 0.6218 -19.4379 205.5821)" class="st1" width="4" height="4.1"/>
		
			<rect x="215.2" y="132.1" transform="matrix(0.6218 -0.7832 0.7832 0.6218 -22.9366 220.8311)" class="st1" width="4" height="4.1"/>
		
			<rect x="229.3" y="143.3" transform="matrix(0.6218 -0.7832 0.7832 0.6218 -26.3505 236.0992)" class="st1" width="4" height="4.1"/>
		
			<rect x="243.4" y="154.6" transform="matrix(0.6218 -0.7832 0.7832 0.6218 -29.8341 251.4559)" class="st1" width="4" height="4.1"/>
		
			<rect x="257.5" y="165.7" transform="matrix(0.6218 -0.7832 0.7832 0.6218 -33.1971 266.7202)" class="st1" width="4" height="4.1"/>
		
			<rect x="270" y="175.6" transform="matrix(0.6218 -0.7832 0.7832 0.6218 -36.2892 280.2392)" class="st1" width="4" height="4.1"/>
	</g>
	<g>
		<rect x="90" y="56.7" transform="matrix(0.6218 -0.7832 0.7832 0.6218 -11.2401 94.3014)" class="st1" width="4" height="4.1"/>
		<rect x="104" y="67.9" transform="matrix(0.6218 -0.7832 0.7832 0.6218 -14.669 109.4616)" class="st1" width="4" height="4.1"/>
		<rect x="118.1" y="79" transform="matrix(0.6218 -0.7832 0.7832 0.6218 -18.032 124.7258)" class="st1" width="4" height="4.1"/>
		
			<rect x="132.3" y="90.3" transform="matrix(0.6218 -0.7832 0.7832 0.6218 -21.5157 140.0826)" class="st1" width="4" height="4.1"/>
		
			<rect x="147.2" y="102.1" transform="matrix(0.6218 -0.7832 0.7832 0.6218 -25.1508 156.2715)" class="st1" width="4" height="4.1"/>
		
			<rect x="161.1" y="113.1" transform="matrix(0.6218 -0.7832 0.7832 0.6218 -28.5098 171.343)" class="st1" width="4" height="4.1"/>
		
			<rect x="175.4" y="124.5" transform="matrix(0.6218 -0.7832 0.7832 0.6218 -31.9785 186.8076)" class="st1" width="4" height="4.1"/>
		
			<rect x="189.4" y="135.6" transform="matrix(0.6218 -0.7832 0.7832 0.6218 -35.4073 201.9679)" class="st1" width="4" height="4.1"/>
		
			<rect x="203.6" y="146.8" transform="matrix(0.6218 -0.7832 0.7832 0.6218 -38.8402 217.3208)" class="st1" width="4" height="4.1"/>
		
			<rect x="217.6" y="158.1" transform="matrix(0.6218 -0.7832 0.7832 0.6218 -42.3389 232.5698)" class="st1" width="4" height="4.1"/>
		
			<rect x="231.8" y="169.3" transform="matrix(0.6218 -0.7832 0.7832 0.6218 -45.7377 247.9456)" class="st1" width="4" height="4.1"/>
		
			<rect x="245.8" y="180.4" transform="matrix(0.6218 -0.7832 0.7832 0.6218 -49.1665 263.1059)" class="st1" width="4" height="4.1"/>
		
			<rect x="258.4" y="190.4" transform="matrix(0.6218 -0.7832 0.7832 0.6218 -52.1928 276.7289)" class="st1" width="4" height="4.1"/>
	</g>
	<g>
		<rect x="78.3" y="71.5" transform="matrix(0.6218 -0.7832 0.7832 0.6218 -27.2095 90.6871)" class="st1" width="4" height="4.1"/>
		
			<rect x="92.4" y="82.6" transform="matrix(0.6218 -0.7832 0.7832 0.6218 -30.5726 105.9513)" class="st1" width="4" height="4.1"/>
		
			<rect x="106.4" y="93.7" transform="matrix(0.6218 -0.7832 0.7832 0.6218 -34.0014 121.1115)" class="st1" width="4" height="4.1"/>
		
			<rect x="120.5" y="105" transform="matrix(0.6218 -0.7832 0.7832 0.6218 -37.4851 136.4684)" class="st1" width="4" height="4.1"/>
		
			<rect x="135.5" y="116.9" transform="matrix(0.6218 -0.7832 0.7832 0.6218 -41.1202 152.6573)" class="st1" width="4" height="4.1"/>
		
			<rect x="149.5" y="127.9" transform="matrix(0.6218 -0.7832 0.7832 0.6218 -44.4982 167.8136)" class="st1" width="4" height="4.1"/>
		
			<rect x="163.7" y="139.2" transform="matrix(0.6218 -0.7832 0.7832 0.6218 -47.9479 183.1934)" class="st1" width="4" height="4.1"/>
		
			<rect x="177.8" y="150.4" transform="matrix(0.6218 -0.7832 0.7832 0.6218 -51.3958 198.4385)" class="st1" width="4" height="4.1"/>
		
			<rect x="191.9" y="161.5" transform="matrix(0.6218 -0.7832 0.7832 0.6218 -54.8096 213.7066)" class="st1" width="4" height="4.1"/>
		
			<rect x="206" y="172.7" transform="matrix(0.6218 -0.7832 0.7832 0.6218 -58.2233 228.9746)" class="st1" width="4" height="4.1"/>
		
			<rect x="220.1" y="184" transform="matrix(0.6218 -0.7832 0.7832 0.6218 -61.7071 244.3314)" class="st1" width="4" height="4.1"/>
		
			<rect x="234.1" y="195.1" transform="matrix(0.6218 -0.7832 0.7832 0.6218 -65.1359 259.4916)" class="st1" width="4" height="4.1"/>
		
			<rect x="246.7" y="205.1" transform="matrix(0.6218 -0.7832 0.7832 0.6218 -68.1622 273.1147)" class="st1" width="4" height="4.1"/>
	</g>
	<g>
		<rect x="66.6" y="86.2" transform="matrix(0.6218 -0.7832 0.7832 0.6218 -43.2018 87.107)" class="st1" width="4" height="4.1"/>
		
			<rect x="80.6" y="97.4" transform="matrix(0.6218 -0.7832 0.7832 0.6218 -46.6497 102.3521)" class="st1" width="4" height="4.1"/>
		
			<rect x="94.6" y="108.6" transform="matrix(0.6218 -0.7832 0.7832 0.6218 -50.0786 117.5123)" class="st1" width="4" height="4.1"/>
		
			<rect x="108.8" y="119.8" transform="matrix(0.6218 -0.7832 0.7832 0.6218 -53.4774 132.8882)" class="st1" width="4" height="4.1"/>
		
			<rect x="123.8" y="131.6" transform="matrix(0.6218 -0.7832 0.7832 0.6218 -57.1125 149.077)" class="st1" width="4" height="4.1"/>
		
			<rect x="137.6" y="142.7" transform="matrix(0.6218 -0.7832 0.7832 0.6218 -60.5563 164.1295)" class="st1" width="4" height="4.1"/>
		<rect x="151.9" y="154" transform="matrix(0.6218 -0.7832 0.7832 0.6218 -64.025 179.5941)" class="st1" width="4" height="4.1"/>
		
			<rect x="166" y="165.2" transform="matrix(0.6218 -0.7832 0.7832 0.6218 -67.4729 194.8392)" class="st1" width="4" height="4.1"/>
		
			<rect x="180.1" y="176.4" transform="matrix(0.6218 -0.7832 0.7832 0.6218 -70.8868 210.1073)" class="st1" width="4" height="4.1"/>
		
			<rect x="194.2" y="187.6" transform="matrix(0.6218 -0.7832 0.7832 0.6218 -74.3006 225.3754)" class="st1" width="4" height="4.1"/>
		
			<rect x="208.3" y="198.8" transform="matrix(0.6218 -0.7832 0.7832 0.6218 -77.7842 240.7321)" class="st1" width="4" height="4.1"/>
		
			<rect x="222.4" y="209.9" transform="matrix(0.6218 -0.7832 0.7832 0.6218 -81.1282 255.9114)" class="st1" width="4" height="4.1"/>
		
			<rect x="234.9" y="219.9" transform="matrix(0.6218 -0.7832 0.7832 0.6218 -84.2394 269.5154)" class="st1" width="4" height="4.1"/>
	</g>
	<g>
		<rect x="56.5" y="98.9" transform="matrix(0.6218 -0.7832 0.7832 0.6218 -56.9365 84.0449)" class="st1" width="4" height="4.1"/>
		
			<rect x="70.5" y="110.1" transform="matrix(0.6218 -0.7832 0.7832 0.6218 -60.3654 99.2052)" class="st1" width="4" height="4.1"/>
		
			<rect x="84.6" y="121.2" transform="matrix(0.6218 -0.7832 0.7832 0.6218 -63.8133 114.4502)" class="st1" width="4" height="4.1"/>
		
			<rect x="98.7" y="132.5" transform="matrix(0.6218 -0.7832 0.7832 0.6218 -67.2779 129.7222)" class="st1" width="4" height="4.1"/>
		
			<rect x="113.7" y="144.4" transform="matrix(0.6218 -0.7832 0.7832 0.6218 -70.932 145.996)" class="st1" width="4" height="4.1"/>
		
			<rect x="127.6" y="155.4" transform="matrix(0.6218 -0.7832 0.7832 0.6218 -74.291 161.0675)" class="st1" width="4" height="4.1"/>
		
			<rect x="141.9" y="166.7" transform="matrix(0.6218 -0.7832 0.7832 0.6218 -77.7597 176.532)" class="st1" width="4" height="4.1"/>
		
			<rect x="155.9" y="177.9" transform="matrix(0.6218 -0.7832 0.7832 0.6218 -81.1885 191.6923)" class="st1" width="4" height="4.1"/>
		<rect x="170" y="189" transform="matrix(0.6218 -0.7832 0.7832 0.6218 -84.6023 206.9603)" class="st1" width="4" height="4.1"/>
		
			<rect x="184.1" y="200.3" transform="matrix(0.6218 -0.7832 0.7832 0.6218 -88.0352 222.3133)" class="st1" width="4" height="4.1"/>
		
			<rect x="198.2" y="211.5" transform="matrix(0.6218 -0.7832 0.7832 0.6218 -91.4999 237.5852)" class="st1" width="4" height="4.1"/>
		
			<rect x="212.3" y="222.7" transform="matrix(0.6218 -0.7832 0.7832 0.6218 -94.9478 252.8303)" class="st1" width="4" height="4.1"/>
		
			<rect x="224.8" y="232.5" transform="matrix(0.6218 -0.7832 0.7832 0.6218 -97.955 266.3684)" class="st1" width="4" height="4.1"/>
	</g>
	<g>
		
			<rect x="45.2" y="113.2" transform="matrix(0.6218 -0.7832 0.7832 0.6218 -72.4012 80.5762)" class="st1" width="4" height="4.1"/>
		
			<rect x="59.2" y="124.3" transform="matrix(0.6218 -0.7832 0.7832 0.6218 -75.8299 95.7365)" class="st1" width="4" height="4.1"/>
		
			<rect x="73.2" y="135.5" transform="matrix(0.6218 -0.7832 0.7832 0.6218 -79.2588 110.8968)" class="st1" width="4" height="4.1"/>
		
			<rect x="87.4" y="146.7" transform="matrix(0.6218 -0.7832 0.7832 0.6218 -82.6576 126.2726)" class="st1" width="4" height="4.1"/>
		
			<rect x="102.4" y="158.6" transform="matrix(0.6218 -0.7832 0.7832 0.6218 -86.3118 142.5463)" class="st1" width="4" height="4.1"/>
		
			<rect x="116.3" y="169.7" transform="matrix(0.6218 -0.7832 0.7832 0.6218 -89.7556 157.5987)" class="st1" width="4" height="4.1"/>
		
			<rect x="130.6" y="181" transform="matrix(0.6218 -0.7832 0.7832 0.6218 -93.2243 173.0634)" class="st1" width="4" height="4.1"/>
		
			<rect x="144.5" y="192.1" transform="matrix(0.6218 -0.7832 0.7832 0.6218 -96.6531 188.2236)" class="st1" width="4" height="4.1"/>
		
			<rect x="158.6" y="203.3" transform="matrix(0.6218 -0.7832 0.7832 0.6218 -100.067 203.4917)" class="st1" width="4" height="4.1"/>
		
			<rect x="172.7" y="214.5" transform="matrix(0.6218 -0.7832 0.7832 0.6218 -103.4808 218.7597)" class="st1" width="4" height="4.1"/>
		
			<rect x="186.9" y="225.8" transform="matrix(0.6218 -0.7832 0.7832 0.6218 -106.9644 234.1165)" class="st1" width="4" height="4.1"/>
		
			<rect x="201" y="236.9" transform="matrix(0.6218 -0.7832 0.7832 0.6218 -110.3275 249.3807)" class="st1" width="4" height="4.1"/>
		
			<rect x="213.5" y="246.8" transform="matrix(0.6218 -0.7832 0.7832 0.6218 -113.4196 262.8998)" class="st1" width="4" height="4.1"/>
	</g>
	<g>
		
			<rect x="33.8" y="127.5" transform="matrix(0.6218 -0.7832 0.7832 0.6218 -87.9545 77.0376)" class="st1" width="4" height="4.1"/>
		
			<rect x="47.8" y="138.7" transform="matrix(0.6218 -0.7832 0.7832 0.6218 -91.4024 92.2828)" class="st1" width="4" height="4.1"/>
		
			<rect x="61.9" y="149.8" transform="matrix(0.6218 -0.7832 0.7832 0.6218 -94.7463 107.4621)" class="st1" width="4" height="4.1"/>
		<rect x="76" y="161.1" transform="matrix(0.6218 -0.7832 0.7832 0.6218 -98.2301 122.8189)" class="st1" width="4" height="4.1"/>
		
			<rect x="91" y="172.9" transform="matrix(0.6218 -0.7832 0.7832 0.6218 -101.8651 139.0077)" class="st1" width="4" height="4.1"/>
		<rect x="105" y="184" transform="matrix(0.6218 -0.7832 0.7832 0.6218 -105.2431 154.1641)" class="st1" width="4" height="4.1"/>
		
			<rect x="119.2" y="195.3" transform="matrix(0.6218 -0.7832 0.7832 0.6218 -108.6927 169.5439)" class="st1" width="4" height="4.1"/>
		
			<rect x="133.2" y="206.4" transform="matrix(0.6218 -0.7832 0.7832 0.6218 -112.1406 184.789)" class="st1" width="4" height="4.1"/>
		
			<rect x="147.3" y="217.6" transform="matrix(0.6218 -0.7832 0.7832 0.6218 -115.5545 200.057)" class="st1" width="4" height="4.1"/>
		
			<rect x="161.4" y="228.9" transform="matrix(0.6218 -0.7832 0.7832 0.6218 -119.0532 215.306)" class="st1" width="4" height="4.1"/>
		
			<rect x="175.6" y="240.1" transform="matrix(0.6218 -0.7832 0.7832 0.6218 -122.452 230.6819)" class="st1" width="4" height="4.1"/>
		
			<rect x="189.6" y="251.2" transform="matrix(0.6218 -0.7832 0.7832 0.6218 -125.8808 245.8422)" class="st1" width="4" height="4.1"/>
		
			<rect x="202.2" y="261.1" transform="matrix(0.6218 -0.7832 0.7832 0.6218 -128.9071 259.4651)" class="st1" width="4" height="4.1"/>
	</g>
	<g>
		<rect x="23.9" y="140" transform="matrix(0.6218 -0.7832 0.7832 0.6218 -101.4926 74.0304)" class="st1" width="4" height="4.1"/>
		
			<rect x="37.9" y="151.2" transform="matrix(0.6218 -0.7832 0.7832 0.6218 -104.9214 89.1907)" class="st1" width="4" height="4.1"/>
		
			<rect x="51.9" y="162.4" transform="matrix(0.6218 -0.7832 0.7832 0.6218 -108.3693 104.4358)" class="st1" width="4" height="4.1"/>
		
			<rect x="66.1" y="173.7" transform="matrix(0.6218 -0.7832 0.7832 0.6218 -111.853 119.7926)" class="st1" width="4" height="4.1"/>
		
			<rect x="81" y="185.5" transform="matrix(0.6218 -0.7832 0.7832 0.6218 -115.4881 135.9815)" class="st1" width="4" height="4.1"/>
		<rect x="95" y="196.5" transform="matrix(0.6218 -0.7832 0.7832 0.6218 -118.847 151.053)" class="st1" width="4" height="4.1"/>
		
			<rect x="109.2" y="207.8" transform="matrix(0.6218 -0.7832 0.7832 0.6218 -122.3158 166.5176)" class="st1" width="4" height="4.1"/>
		
			<rect x="123.2" y="219" transform="matrix(0.6218 -0.7832 0.7832 0.6218 -125.7446 181.6778)" class="st1" width="4" height="4.1"/>
		
			<rect x="137.3" y="230.1" transform="matrix(0.6218 -0.7832 0.7832 0.6218 -129.1584 196.9459)" class="st1" width="4" height="4.1"/>
		
			<rect x="151.5" y="241.4" transform="matrix(0.6218 -0.7832 0.7832 0.6218 -132.5913 212.2988)" class="st1" width="4" height="4.1"/>
		
			<rect x="165.7" y="252.7" transform="matrix(0.6218 -0.7832 0.7832 0.6218 -136.075 227.6556)" class="st1" width="4" height="4.1"/>
		
			<rect x="179.6" y="263.8" transform="matrix(0.6218 -0.7832 0.7832 0.6218 -139.5038 242.8158)" class="st1" width="4" height="4.1"/>
		
			<rect x="192.2" y="273.7" transform="matrix(0.6218 -0.7832 0.7832 0.6218 -142.511 256.354)" class="st1" width="4" height="4.1"/>
	</g>
	<g>
		
			<rect x="12.4" y="154.6" transform="matrix(0.6218 -0.7832 0.7832 0.6218 -117.2615 70.5219)" class="st1" width="4" height="4.1"/>
		
			<rect x="26.4" y="165.7" transform="matrix(0.6218 -0.7832 0.7832 0.6218 -120.6055 85.7012)" class="st1" width="4" height="4.1"/>
		
			<rect x="40.4" y="176.8" transform="matrix(0.6218 -0.7832 0.7832 0.6218 -124.0343 100.8614)" class="st1" width="4" height="4.1"/>
		
			<rect x="54.6" y="188.1" transform="matrix(0.6218 -0.7832 0.7832 0.6218 -127.5181 116.2182)" class="st1" width="4" height="4.1"/>
		
			<rect x="69.5" y="199.9" transform="matrix(0.6218 -0.7832 0.7832 0.6218 -131.1532 132.4071)" class="st1" width="4" height="4.1"/>
		
			<rect x="83.5" y="211" transform="matrix(0.6218 -0.7832 0.7832 0.6218 -134.5312 147.5635)" class="st1" width="4" height="4.1"/>
		
			<rect x="97.8" y="222.3" transform="matrix(0.6218 -0.7832 0.7832 0.6218 -137.9998 163.0281)" class="st1" width="4" height="4.1"/>
		
			<rect x="111.8" y="233.5" transform="matrix(0.6218 -0.7832 0.7832 0.6218 -141.4286 178.1883)" class="st1" width="4" height="4.1"/>
		
			<rect x="125.9" y="244.6" transform="matrix(0.6218 -0.7832 0.7832 0.6218 -144.8425 193.4564)" class="st1" width="4" height="4.1"/>
		
			<rect x="140" y="255.8" transform="matrix(0.6218 -0.7832 0.7832 0.6218 -148.2564 208.7244)" class="st1" width="4" height="4.1"/>
		
			<rect x="154.1" y="267.1" transform="matrix(0.6218 -0.7832 0.7832 0.6218 -151.74 224.0813)" class="st1" width="4" height="4.1"/>
		
			<rect x="168.1" y="278.2" transform="matrix(0.6218 -0.7832 0.7832 0.6218 -155.1689 239.2415)" class="st1" width="4" height="4.1"/>
		
			<rect x="180.7" y="288.2" transform="matrix(0.6218 -0.7832 0.7832 0.6218 -158.1951 252.8644)" class="st1" width="4" height="4.1"/>
	</g>
	<g>
		<rect x="0.8" y="169" transform="matrix(0.6218 -0.7832 0.7832 0.6218 -132.9266 66.9475)" class="st1" width="4" height="4.1"/>
		
			<rect x="14.8" y="180.2" transform="matrix(0.6218 -0.7832 0.7832 0.6218 -136.3555 82.1077)" class="st1" width="4" height="4.1"/>
		<rect x="29" y="191.3" transform="matrix(0.6218 -0.7832 0.7832 0.6218 -139.7185 97.3719)" class="st1" width="4" height="4.1"/>
		
			<rect x="43.1" y="202.6" transform="matrix(0.6218 -0.7832 0.7832 0.6218 -143.2021 112.7287)" class="st1" width="4" height="4.1"/>
		
			<rect x="58.1" y="214.4" transform="matrix(0.6218 -0.7832 0.7832 0.6218 -146.8372 128.9176)" class="st1" width="4" height="4.1"/>
		
			<rect x="72" y="225.4" transform="matrix(0.6218 -0.7832 0.7832 0.6218 -150.1962 143.9891)" class="st1" width="4" height="4.1"/>
		
			<rect x="86.2" y="236.8" transform="matrix(0.6218 -0.7832 0.7832 0.6218 -153.7497 159.4346)" class="st1" width="4" height="4.1"/>
		
			<rect x="100.3" y="248" transform="matrix(0.6218 -0.7832 0.7832 0.6218 -157.1128 174.6988)" class="st1" width="4" height="4.1"/>
		
			<rect x="114.4" y="259.1" transform="matrix(0.6218 -0.7832 0.7832 0.6218 -160.5266 189.9669)" class="st1" width="4" height="4.1"/>
		
			<rect x="128.5" y="270.4" transform="matrix(0.6218 -0.7832 0.7832 0.6218 -164.0253 205.2159)" class="st1" width="4" height="4.1"/>
		
			<rect x="142.7" y="281.6" transform="matrix(0.6218 -0.7832 0.7832 0.6218 -167.4241 220.5917)" class="st1" width="4" height="4.1"/>
		
			<rect x="156.7" y="292.7" transform="matrix(0.6218 -0.7832 0.7832 0.6218 -170.853 235.752)" class="st1" width="4" height="4.1"/>
		
			<rect x="169.2" y="302.7" transform="matrix(0.6218 -0.7832 0.7832 0.6218 -173.8792 249.375)" class="st1" width="4" height="4.1"/>
	</g>
</g>
</svg>
